#!OML:ASF H:\Terrain\Patient Classification 1\Walking\liu\liu.ASF
:FULLY-SPECIFIED
:DEGREES
310
root 10.7115 16.9131 9.82932 6.34777 3.32955 5.31133
lowerback -6.9984 -3.32269 -8.3084
upperback -0.630174 -3.82606 1.35446
thorax 3.91075 -2.05252 5.67554
lowerneck -21.3266 -4.81817 -12.2026
upperneck 22.454 -6.0901 12.5281
head 11.6593 -2.27185 5.75003
rclavicle 5.33488e-014 -4.77083e-015
rhumerus -47.6016 9.95803 -86.9293
rradius 33.5288
rwrist -17.6807
rhand -28.0364 -36.1025
rfingers 7.12502
rthumb -1.42102 -66.0775
lclavicle 5.33488e-014 -4.77083e-015
lhumerus -22.9286 -17.5128 90.2938
lradius 32.4861
lwrist 8.5572
lhand -15.797 -25.9155
lfingers 7.12502
lthumb 10.396 3.80749
rfemur -42.0998 18.5803 3.42542
rtibia 24.8375
rfoot -29.0274 -18.6815
rtoes -21.211
lfemur 11.5899 5.32987 -29.0325
ltibia 2.54444e-014
lfoot -13.1694 -5.6965
ltoes 8.58547
311
root 10.7006 16.9021 9.98693 6.59332 3.87192 4.89704
lowerback -7.32816 -3.46686 -7.91026
upperback -0.688701 -4.02933 1.51117
thorax 4.05099 -2.15147 5.5757
lowerneck -20.9227 -4.71419 -12.2966
upperneck 22.0188 -5.99056 12.8013
head 11.4148 -2.21438 5.86989
rclavicle -3.926e-015 -3.73715e-014
rhumerus -47.3268 9.14109 -86.3593
rradius 32.7018
rwrist -16.638
rhand -35.0245 -37.4507
rfingers 7.12502
rthumb -8.16841 -67.2728
lclavicle -3.926e-015 -3.73715e-014
lhumerus -23.5653 -16.8426 90.53
lradius 33.0662
lwrist 7.83369
lhand -15.191 -26.0286
lfingers 7.12502
lthumb 10.9805 3.66421
rfemur -42.2896 18.1681 4.03064
rtibia 24.9656
rfoot -30.5801 -19.1682
rtoes -21.1044
lfemur 11.8965 5.06444 -28.3182
ltibia -1.90833e-014
lfoot -13.1399 -6.21895
ltoes 8.68621
312
root 10.6979 16.8825 10.1468 6.72686 4.00617 4.6699
lowerback -7.62235 -3.46131 -7.61359
upperback -0.608938 -4.02432 1.60585
thorax 4.28551 -2.15554 5.49163
lowerneck -20.9837 -4.774 -12.5454
upperneck 21.7282 -6.01778 13.0272
head 11.3395 -2.21887 5.98446
rclavicle 4.52235e-015 -9.54166e-015
rhumerus -47.0373 8.59169 -85.8137
rradius 32.1008
rwrist -15.0649
rhand -36.6226 -30.8699
rfingers 7.12502
rthumb -9.71056 -60.626
lclavicle 4.52235e-015 -9.54166e-015
lhumerus -23.8766 -16.296 90.7181
lradius 33.5069
lwrist 7.12872
lhand -13.7879 -25.9167
lfingers 7.12502
lthumb 12.3336 3.69953
rfemur -42.2167 15.7472 5.7598
rtibia 25.1711
rfoot -29.4639 -17.4074
rtoes -18.5871
lfemur 12.3534 5.20349 -27.8919
ltibia -2.8625e-014
lfoot -13.0697 -6.75223
ltoes 8.60148
313
root 10.6942 16.8511 10.3064 6.63281 3.77117 4.92459
lowerback -7.58008 -3.33568 -7.81719
upperback -0.481762 -3.83645 1.53628
thorax 4.37546 -2.07287 5.55667
lowerneck -21.4195 -4.94983 -12.8473
upperneck 21.7978 -6.18174 13.2534
head 11.496 -2.27824 6.10362
rclavicle 1.52567e-014 6.36111e-015
rhumerus -47.3533 8.97854 -86.0208
rradius 32.1074
rwrist -14.6514
rhand -35.0196 -21.4034
rfingers 7.12502
rthumb -8.16365 -51.2257
lclavicle 1.52567e-014 6.36111e-015
lhumerus -24.1454 -15.9989 90.982
lradius 33.7219
lwrist 6.77193
lhand -12.7644 -25.725
lfingers 7.12502
lthumb 13.3203 3.82931
rfemur -42.0896 13.5068 7.0332
rtibia 25.4709
rfoot -27.3808 -15.733
rtoes -17.5827
lfemur 13.0941 5.69019 -28.0225
ltibia 2.22639e-014
lfoot -13.0667 -7.0728
ltoes 5.37409
314
root 10.6817 16.8201 10.4598 6.52482 3.67033 5.47554
lowerback -7.32403 -3.3275 -8.46236
upperback -0.483729 -3.78843 1.42208
thorax 4.25709 -2.05591 5.81882
lowerneck -21.6001 -4.93271 -12.7949
upperneck 21.8348 -6.1573 13.2557
head 11.5395 -2.25645 6.10204
rclavicle -8.79622e-015 8.74653e-015
rhumerus -47.8233 9.57756 -86.475
rradius 32.2925
rwrist -15.1645
rhand -36.3769 -20.9876
rfingers 7.12502
rthumb -9.47347 -50.7547
lclavicle -8.79622e-015 8.74653e-015
lhumerus -24.6824 -15.9493 91.3051
lradius 33.8473
lwrist 6.74823
lhand -12.2125 -25.5419
lfingers 7.12502
lthumb 13.8523 3.97685
rfemur -41.9556 12.0477 7.55007
rtibia 25.9227
rfoot -25.27 -15.6013
rtoes -21.2453
lfemur 13.7955 6.01561 -28.4164
ltibia 3.18055e-015
lfoot -13.1566 -7.30622
ltoes 2.03189
315
root 10.6688 16.7938 10.6155 6.61061 3.84458 5.7167
lowerback -7.319 -3.37305 -8.72118
upperback -0.570562 -3.82747 1.34147
thorax 4.18079 -2.07292 5.877
lowerneck -21.3709 -4.83901 -12.6184
upperneck 21.5992 -6.09312 13.2715
head 11.3907 -2.21734 6.07623
rclavicle -3.09359e-014 3.18055e-015
rhumerus -47.9453 9.286 -86.4618
rradius 32.0772
rwrist -15.4745
rhand -32.2306 -18.4648
rfingers 7.12502
rthumb -5.47136 -48.3741
lclavicle -3.09359e-014 3.18055e-015
lhumerus -25.3826 -16.4519 91.6669
lradius 34.0561
lwrist 7.20226
lhand -11.9458 -25.3801
lfingers 7.12502
lthumb 14.1092 4.12088
rfemur -41.9117 10.6651 8.2381
rtibia 26.4157
rfoot -25.0865 -14.9956
rtoes -22.1917
lfemur 14.32 6.06824 -28.449
ltibia -5.40694e-014
lfoot -13.152 -7.5819
ltoes 2.19895
